:SAMPLES-PER-SECOND 30
:FULLY-SPECIFIED
:DEGREES
1023
root  9.63495 38.4322 -2.19644 172.051 -74.3165 -179.12
RightUpLeg  -13.8906 -4.39688 5.02556
RightLeg  21.3164 -2.5343 -1.29591
RightFoot  -1.44652 0.548371 -6.42794
RightToes  -1.74624e-010 0 -3.6325e-017
Spine  0.71408 -7.74929 -3.45994
Spine1  2.38474 -7.375 -0.609356
HEad  -3.10715 -46.3198 -3.59936
LeftShoulder1  0.541621 1.83335 -26.2298
LeftArm  -2.54885 2.45809 -35.8767
LeftForeArm  25.0336 -18.9982 -4.41634
LeftHand  -0.0176473 6.62626 1.77795
RightShoulder  0.110525 -9.62313 -11.6428
RightArm  -90.7736 21.7472 -13.7761
RightForeArm  22.343 25.7655 3.97247
RightHand  -1.30523 10.9653 -9.62267
LeftUpLeg  15.5367 13.2567 1.55161
LeftLeg  23.9585 -3.86596 -1.52612
LeftFoot  -16.3385 -0.0900782 -4.52634
LeftToes  2.27646e-009 -8.13696e-011 -1.44715e-011
1024
root  8.6521 38.4794 -2.47397 168.075 -74.7507 -174.958
RightUpLeg  -12.2703 -5.90576 5.87003
RightLeg  21.6277 -1.91763 -0.888149
RightFoot  -3.48438 0.40877 -6.29012
RightToes  -1.74624e-010 0 -3.6325e-017
Spine  0.930754 -8.10666 -2.22919
Spine1  2.19335 -7.54354 0.275942
HEad  -2.5583 -46.4723 -4.01126
LeftShoulder1  0.598715 1.64994 -26.1188
LeftArm  -4.65585 4.18617 -35.077
LeftForeArm  27.5501 -16.0797 -5.13781
LeftHand  -0.0441057 6.6874 -0.680275
RightShoulder  0.119678 -9.74586 -11.7698
RightArm  -98.2564 23.2806 -13.0517
RightForeArm  16.5536 21.3775 2.25801
RightHand  -1.37351 12.2387 -9.41587
LeftUpLeg  11.9519 13.2256 4.17051
LeftLeg  33.2555 -6.15722 -3.99336
LeftFoot  -11.0736 0.0960234 -9.0034
LeftToes  2.27646e-009 -8.13696e-011 -1.44715e-011
1025
root  7.73242 38.4953 -2.72042 165.213 -73.684 -171.925
RightUpLeg  -10.749 -6.58891 6.64754
RightLeg  21.8289 -0.753289 -0.092628
RightFoot  -5.12413 0.311148 -6.35574
RightToes  -1.74624e-010 0 -3.6325e-017
Spine  1.24764 -7.73244 -0.149581
Spine1  1.61328 -6.84871 0.0093496
HEad  -3.44948 -47.0981 -2.74916
LeftShoulder1  0.61793 1.5665 -25.715
LeftArm  -6.77984 5.26559 -34.4517
LeftForeArm  30.2237 -13.2737 -5.73298
LeftHand  -0.0430148 6.60227 -0.725393
RightShoulder  0.0924955 -9.46207 -11.3565
RightArm  -98.0266 24.1501 -12.6147
RightForeArm  17.4432 23.2072 3.46963
RightHand  -1.25437 12.145 -8.69387
LeftUpLeg  7.34341 13.7396 6.38378
LeftLeg  43.0315 -6.51478 -6.05114
LeftFoot  -2.86297 0.894702 -11.8638
LeftToes  2.27646e-009 -8.13696e-011 -1.44715e-011
1026
root  6.87958 38.4516 -2.88954 163.46 -72.0693 -170.402
RightUpLeg  -9.28058 -6.35608 7.21016
RightLeg  22.633 0.133346 0.402814
RightFoot  -6.89143 0.199012 -6.30397
RightToes  -1.74624e-010 0 -3.6325e-017
Spine  2.11192 -7.31593 1.64408
Spine1  1.29931 -6.17537 0.141233
HEad  -5.69253 -47.1288 -1.38705
LeftShoulder1  0.507805 1.93421 -26.1602
LeftArm  -8.12491 6.23372 -33.4573
LeftForeArm  31.5682 -12.0572 -5.69109
LeftHand  -0.0394465 6.15123 -1.05758
RightShoulder  0.0895833 -9.14138 -11.3896
RightArm  -88.713 25.4627 -12.231
RightForeArm  17.2519 29.3562 5.49751
RightHand  -1.28011 12.9755 -8.47777
LeftUpLeg  2.83194 13.9884 7.71944
LeftLeg  51.5256 -4.84317 -6.02982
LeftFoot  4.5214 1.64893 -12.0666
LeftToes  2.27646e-009 -8.13696e-011 -1.44715e-011
1027
root  6.05246 38.4295 -3.03818 163.016 -70.5584 -170.269
RightUpLeg  -7.78277 -5.85389 7.3762
RightLeg  23.3476 0.945958 0.684913
RightFoot  -8.51874 0.0930394 -6.10461
RightToes  -1.74624e-010 0 -3.6325e-017
Spine  2.30122 -7.06805 3.72234
Spine1  1.87776 -5.44053 -1.15986
HEad  -6.27725 -47.8786 -0.0893074
LeftShoulder1  0.557065 1.76063 -25.7515
LeftArm  -9.71955 7.78582 -33.1175
LeftForeArm  30.9727 -11.756 -5.16684
LeftHand  -0.064827 7.1858 -1.517
RightShoulder  0.103892 -8.5587 -11.9475
RightArm  -75.6046 25.8203 -10.9426
RightForeArm  16.802 39.5541 8.21447
RightHand  -1.28725 11.9498 -9.01637
LeftUpLeg  -1.20114 14.3022 8.48473
LeftLeg  57.6313 -2.81332 -4.27997
LeftFoot  4.84303 1.30711 -9.34849
LeftToes  2.27646e-009 -8.13696e-011 -1.44715e-011
1028
root  5.18901 38.5425 -3.17486 165.168 -69.2728 -172.638
RightUpLeg  -6.00114 -5.47029 6.50735
RightLeg  23.1 2.11087 0.986957
RightFoot  -9.80677 0.0118496 -5.79368
RightToes  -1.74624e-010 0 -3.6325e-017
Spine  2.56099 -6.66831 4.30576
Spine1  1.72053 -4.90593 -1.75127
HEad  -7.04351 -49.2817 0.626906
LeftShoulder1  0.522908 1.87323 -25.8631
LeftArm  -10.1415 9.41441 -32.737
LeftForeArm  29.4753 -12.4301 -4.79218
LeftHand  -0.0527629 6.91176 -1.17652
RightShoulder  0.133863 -7.68326 -13.1714
RightArm  -64.3083 25.6641 -10.6278
RightForeArm  20.5569 51.1642 12.4336
RightHand  -1.31602 10.0777 -10.2092
LeftUpLeg  -5.04405 14.1152 7.97801
LeftLeg  60.4846 -1.54843 -2.4259
LeftFoot  3.62142 0.812342 -6.35536
LeftToes  2.27646e-009 -8.13696e-011 -1.44715e-011
1029
root  4.34343 38.6723 -3.29627 166.891 -68.6598 -174.351
RightUpLeg  -4.37443 -5.78584 5.4856
RightLeg  22.5433 3.21782 1.32263
RightFoot  -10.7868 -0.0474246 -5.33153
RightToes  -1.74624e-010 0 -3.6325e-017
Spine  2.575 -6.31959 5.05863
Spine1  1.78127 -4.42456 -2.69078
HEad  -7.18444 -50.267 0.780238
LeftShoulder1  0.506935 1.90624 -25.521
LeftArm  -10.3312 10.6052 -33.1181
LeftForeArm  27.8208 -13.0984 -4.57538
LeftHand  -0.0433748 7.43235 -0.080431
RightShoulder  0.142424 -7.51515 -13.5793
RightArm  -56.1224 25.6146 -12.4514
RightForeArm  32.0496 62.5768 18.9385
RightHand  -1.09227 8.32868 -9.57991
LeftUpLeg  -8.89842 12.7984 7.13088
LeftLeg  60.5395 -1.18736 -1.72542
LeftFoot  2.38111 0.44363 -3.79594
LeftToes  2.27646e-009 -8.13696e-011 -1.44715e-011
1030
root  3.51924 38.8227 -3.42136 168.917 -68.3439 -176.26
RightUpLeg  -2.61106 -6.4046 4.19534
RightLeg  21.411 4.48678 1.70878
RightFoot  -11.5841 -0.0887764 -5.15292
RightToes  -1.74624e-010 0 -3.6325e-017
Spine  2.53634 -5.79381 5.59812
Spine1  1.75866 -3.83689 -3.73669
HEad  -7.68979 -51.057 1.10492
LeftShoulder1  0.555936 1.73479 -25.2012
LeftArm  -11.3517 11.1822 -33.7455
LeftForeArm  27.896 -13.5965 -4.1287
LeftHand  -0.0297481 5.79939 0.289342
RightShoulder  0.14502 -7.20822 -13.9933
RightArm  -50.6794 24.4115 -14.8137
RightForeArm  47.8489 71.419 28.7989
RightHand  -1.06538 8.11798 -9.47998
LeftUpLeg  -12.0747 11.3478 6.20758
LeftLeg  57.5676 -1.57536 -2.13429
LeftFoot  0.39035 0.203416 -2.00884
LeftToes  2.27646e-009 -8.13696e-011 -1.44715e-011
